<svg xmlns="http://www.w3.org/2000/svg" viewBox="0 0 96 96" width="96" height="96">
<circle cx="48" cy="48" r="48" fill="#3E9CA4"/>
<g fill="#FFFFFF" stroke="#FFFFFF" stroke-width="0" stroke-linecap="round" stroke-linejoin="round">

<circle cx="48" cy="24" r="6"/><path d="M40 40 v-3 a8 8 0 0 1 16 0 v3 z"/>
<path d="M28 42 h40 l4 6 h-48 z"/>
<circle cx="30" cy="60" r="4"/><circle cx="48" cy="60" r="4"/><circle cx="66" cy="60" r="4"/>
<path d="M23 72 v-2 a7 7 0 0 1 14 0 v2 z M41 72 v-2 a7 7 0 0 1 14 0 v2 z M59 72 v-2 a7 7 0 0 1 14 0 v2 z"/>
</g></svg>